<svg width="205" height="49" viewBox="0 0 205 49" fill="none" xmlns="http://www.w3.org/2000/svg">
<g clip-path="url(#clip0_14_32)">
<path d="M18.901 37.802C29.3909 37.802 37.802 29.5295 37.802 18.901C37.802 8.27251 29.3909 0 18.901 0C8.4111 0 0 8.27251 0 18.901C0 29.5295 8.4111 37.802 18.901 37.802Z" fill="#FDB833"/>
<path d="M48.3555 11.0975H44.1127C43.3131 11.0975 42.8761 11.5346 42.8761 12.3235V37.6101C42.8761 40.3605 41.81 41.5758 39.5393 41.7144C38.7185 41.789 38.2708 42.2048 38.2708 42.9936V46.97C38.2708 47.7482 38.7078 48.2386 39.5074 48.2386C46.3301 48.2599 49.5815 44.8485 49.5815 37.6101V12.3235C49.5815 11.5346 49.1444 11.0975 48.3555 11.0975Z" fill="#FDB833"/>
<path fill-rule="evenodd" clip-rule="evenodd" d="M42.6191 8.19355L42.5605 2.28946C42.5605 2.19882 42.6149 2.12054 42.6985 2.08345L46.0216 0.727926C46.0801 0.703204 46.1386 0.703204 46.1929 0.727926L49.516 2.08345C49.6038 2.12054 49.654 2.19882 49.654 2.28946L49.7125 8.19355C49.7125 8.27183 49.6749 8.33775 49.6122 8.37896C49.5495 8.42016 49.4701 8.4284 49.399 8.39956L46.2515 7.11819C46.1929 7.09347 46.1344 7.09347 46.0801 7.11819L42.9326 8.39956C42.8615 8.4284 42.7863 8.42016 42.7194 8.37896C42.6567 8.33776 42.6191 8.27183 42.6191 8.19355Z" fill="#FDB833"/>
<path d="M68.1069 9.4198C75.8031 9.4198 81.1073 15.452 81.1073 23.1483C81.1073 23.7203 81.0553 24.2403 81.0033 24.7603C80.9513 25.5403 80.4313 25.9043 79.7032 25.9043H74.3471H61.2946C62.2307 29.5965 65.0388 31.2605 68.3669 31.2605C70.3429 31.2605 72.059 30.4805 73.099 29.3885C73.567 28.9204 73.9831 28.6604 74.6071 28.6604H78.7672C79.7032 28.6604 80.1713 29.2325 79.8073 30.0125C77.8312 34.3806 73.567 36.8247 68.2629 36.8247C59.7866 36.8247 54.3264 30.8965 54.3264 23.0963C54.3264 15.4 59.9426 9.4198 68.1069 9.4198ZM61.2946 20.6002H74.3991C73.619 16.908 70.863 15.452 68.0549 15.452C64.5187 15.452 62.0747 17.3761 61.2946 20.6002Z" fill="#FDB833"/>
<path d="M111.989 9.4198C116.929 9.4198 120.101 12.5919 120.101 18.5721V34.9006C120.101 35.6807 119.633 36.0967 118.853 36.0967H114.641C113.809 36.0967 113.393 35.6807 113.393 34.9006V19.0921C113.393 16.492 111.833 15.608 110.064 15.608C108.244 15.608 106.216 16.648 106.216 20.0281V34.9006C106.216 35.6807 105.8 36.0967 104.968 36.0967H100.756C99.9761 36.0967 99.5081 35.6807 99.5081 34.9006V19.0921C99.5081 16.492 98.0001 15.608 96.18 15.608C94.3599 15.608 92.3319 16.648 92.3319 20.0281V34.9006C92.3319 35.6807 91.9159 36.0967 91.1358 36.0967H86.8717C86.0917 36.0967 85.6236 35.6807 85.6236 34.9006V11.3439C85.6236 10.5638 86.0917 10.0958 86.8717 10.0958H91.1358C91.9159 10.0958 92.3319 10.5638 92.3319 11.3439V12.6439C93.7359 10.5638 95.972 9.4198 98.5721 9.4198C101.276 9.4198 103.512 10.6158 104.864 12.8519C106.632 10.6158 108.972 9.4198 111.989 9.4198Z" fill="#FDB833"/>
<path d="M140.689 9.4198C147.605 9.4198 153.325 15.4 153.325 23.0963C153.325 30.8445 147.605 36.8247 140.689 36.8247C136.841 36.8247 134.085 35.4207 132.213 33.0286V34.9006C132.213 35.6807 131.797 36.0967 131.017 36.0967H126.752C125.972 36.0967 125.504 35.6807 125.504 34.9006V0.943516C125.504 0.163491 125.972 -0.304524 126.752 -0.304524H131.017C131.797 -0.304524 132.213 0.163491 132.213 0.943516V13.2159C134.085 10.8238 136.841 9.4198 140.689 9.4198ZM139.441 30.4285C143.549 30.4285 146.617 27.4644 146.617 23.0963C146.617 18.7281 143.549 15.764 139.441 15.764C135.281 15.764 132.213 18.7281 132.213 23.0963C132.213 27.4644 135.281 30.4285 139.441 30.4285Z" fill="#FDB833"/>
<path d="M167.938 9.4198C173.658 9.4198 178.495 12.8519 178.495 19.6121V34.9006C178.495 35.6807 178.079 36.1487 177.246 36.1487H173.19C172.41 36.1487 171.942 35.6807 171.942 34.9006V33.8606C170.434 35.6807 168.198 36.8247 164.922 36.8247C160.294 36.8247 156.134 34.1206 156.134 28.6604C156.134 23.2003 160.294 20.4442 164.922 20.4442C168.198 20.4442 170.434 21.4322 171.942 22.7842V19.9761C171.942 16.908 170.382 15.608 167.938 15.608C165.962 15.608 164.506 16.44 164.09 17.8441C163.778 18.5721 163.518 18.9361 162.79 18.9361H158.63C157.85 18.9361 157.33 18.5201 157.382 17.6881C158.058 12.3319 162.582 9.4198 167.938 9.4198ZM167.158 31.8845C170.122 31.8845 171.942 30.5325 171.942 28.6604C171.942 26.6324 170.122 25.4363 167.158 25.4363C164.246 25.4363 162.842 26.7884 162.842 28.6604C162.842 30.5325 164.246 31.8845 167.158 31.8845Z" fill="#FDB833"/>
<path d="M194.408 9.4198C200.128 9.4198 204.964 12.8519 204.964 19.6121V34.9006C204.964 35.6807 204.548 36.1487 203.716 36.1487H199.66C198.88 36.1487 198.412 35.6807 198.412 34.9006V33.8606C196.904 35.6807 194.668 36.8247 191.392 36.8247C186.764 36.8247 182.604 34.1206 182.604 28.6604C182.604 23.2003 186.764 20.4442 191.392 20.4442C194.668 20.4442 196.904 21.4322 198.412 22.7842V19.9761C198.412 16.908 196.852 15.608 194.408 15.608C192.432 15.608 190.976 16.44 190.56 17.8441C190.248 18.5721 189.988 18.9361 189.26 18.9361H185.1C184.32 18.9361 183.8 18.5201 183.852 17.6881C184.528 12.3319 189.052 9.4198 194.408 9.4198ZM193.628 31.8845C196.592 31.8845 198.412 30.5325 198.412 28.6604C198.412 26.6324 196.592 25.4363 193.628 25.4363C190.716 25.4363 189.312 26.7884 189.312 28.6604C189.312 30.5325 190.716 31.8845 193.628 31.8845Z" fill="#FDB833"/>
<path fill-rule="evenodd" clip-rule="evenodd" d="M16.579 9.85034H24.2652C24.4998 9.85034 24.7023 9.98893 24.7983 10.2021L28.3055 18.6772C28.3695 18.8264 28.3695 18.9757 28.3055 19.1143L24.7983 27.5893C24.7023 27.8132 24.4998 27.9411 24.2652 27.9411H16.579C16.3765 27.9411 16.2059 27.8452 16.0993 27.6853C15.9927 27.5254 15.9714 27.3228 16.046 27.1416L19.3614 19.1143C19.4254 18.965 19.4254 18.8158 19.3614 18.6772L16.046 10.6499C15.9714 10.4686 15.9927 10.2768 16.0993 10.1062C16.2059 9.94629 16.3765 9.85034 16.579 9.85034ZM10.5772 9.85034H13.2423C13.4768 9.85034 13.6794 9.98893 13.7753 10.2021L17.2826 18.6772C17.3466 18.8264 17.3466 18.9757 17.2826 19.1143L13.7753 27.5893C13.6794 27.8132 13.4768 27.9411 13.2423 27.9411H10.5772C10.3747 27.9411 10.2041 27.8452 10.0975 27.6853C9.99088 27.5254 9.96956 27.3228 10.0442 27.1416L13.3596 19.1143C13.4235 18.965 13.4235 18.8158 13.3596 18.6772L10.0442 10.6499C9.96956 10.4686 9.99088 10.2768 10.0975 10.1062C10.2041 9.94629 10.3747 9.85034 10.5772 9.85034Z" fill="#001E28"/>
</g>
<defs>
<clipPath id="clip0_14_32">
<rect width="205" height="48.2599" fill="white"/>
</clipPath>
</defs>
</svg>
