<svg width="197" height="62" viewBox="0 0 197 62" fill="none" xmlns="http://www.w3.org/2000/svg">
<path d="M18.8134 50.652C28.707 50.652 36.64 42.8497 36.64 32.8254C36.64 22.8011 28.707 14.9988 18.8134 14.9988C8.91975 14.9988 0.986755 22.8011 0.986755 32.8254C0.986755 42.8497 8.91975 50.652 18.8134 50.652Z" fill="#001E28"/>
<path d="M46.5839 25.4656H42.5822C41.8281 25.4656 41.4159 25.8778 41.4159 26.6218V50.4711C41.4159 53.0652 40.4104 54.2114 38.2688 54.3421C37.4946 54.4125 37.0723 54.8046 37.0723 55.5486V59.2989C37.0723 60.0329 37.4846 60.4954 38.2386 60.4954C44.6735 60.5155 47.7401 57.2981 47.7401 50.4711V26.6218C47.7401 25.8778 47.3279 25.4656 46.5839 25.4656Z" fill="#001E28"/>
<path fill-rule="evenodd" clip-rule="evenodd" d="M41.1735 22.7266L41.1183 17.1581C41.1183 17.0726 41.1695 16.9988 41.2484 16.9638L44.3826 15.6854C44.4378 15.662 44.493 15.662 44.5442 15.6854L47.6784 16.9638C47.7612 16.9988 47.8085 17.0726 47.8085 17.1581L47.8637 22.7266C47.8637 22.8004 47.8282 22.8626 47.7691 22.9015C47.7099 22.9403 47.635 22.9481 47.568 22.9209L44.5994 21.7124C44.5442 21.6891 44.489 21.6891 44.4378 21.7124L41.4692 22.9209C41.4021 22.9481 41.3312 22.9403 41.2681 22.9015C41.209 22.8626 41.1735 22.8004 41.1735 22.7266Z" fill="#001E28"/>
<path d="M65.2125 23.7821C72.4713 23.7821 77.4739 29.4714 77.4739 36.7302C77.4739 37.2697 77.4249 37.7602 77.3758 38.2506C77.3268 38.9863 76.8363 39.3296 76.1497 39.3296H71.098H58.7875C59.6703 42.8119 62.3188 44.3814 65.4577 44.3814C67.3215 44.3814 68.94 43.6457 69.9209 42.6157C70.3623 42.1743 70.7547 41.9291 71.3432 41.9291H75.2669C76.1497 41.9291 76.5911 42.4686 76.2478 43.2043C74.3841 47.3241 70.3623 49.6293 65.3596 49.6293C57.3652 49.6293 52.2153 44.038 52.2153 36.6812C52.2153 29.4224 57.5123 23.7821 65.2125 23.7821ZM58.7875 34.327H71.147C70.4113 30.8447 67.8119 29.4714 65.1634 29.4714C61.8283 29.4714 59.5232 31.2861 58.7875 34.327Z" fill="#001E28"/>
<path d="M106.6 23.7821C111.259 23.7821 114.251 26.7739 114.251 32.4142V47.8146C114.251 48.5503 113.81 48.9426 113.074 48.9426H109.101C108.316 48.9426 107.924 48.5503 107.924 47.8146V32.9046C107.924 30.4524 106.453 29.6186 104.785 29.6186C103.068 29.6186 101.156 30.5995 101.156 33.7875V47.8146C101.156 48.5503 100.763 48.9426 99.9786 48.9426H96.0059C95.2702 48.9426 94.8288 48.5503 94.8288 47.8146V32.9046C94.8288 30.4524 93.4064 29.6186 91.6898 29.6186C89.9732 29.6186 88.0605 30.5995 88.0605 33.7875V47.8146C88.0605 48.5503 87.6681 48.9426 86.9324 48.9426H82.9106C82.175 48.9426 81.7335 48.5503 81.7335 47.8146V25.5968C81.7335 24.8611 82.175 24.4197 82.9106 24.4197H86.9324C87.6681 24.4197 88.0605 24.8611 88.0605 25.5968V26.823C89.3847 24.8611 91.4937 23.7821 93.946 23.7821C96.4963 23.7821 98.6053 24.9102 99.8805 27.0191C101.548 24.9102 103.755 23.7821 106.6 23.7821Z" fill="#001E28"/>
<path d="M133.669 23.7821C140.192 23.7821 145.587 29.4224 145.587 36.6812C145.587 43.989 140.192 49.6293 133.669 49.6293C130.039 49.6293 127.44 48.305 125.674 46.0489V47.8146C125.674 48.5503 125.282 48.9426 124.546 48.9426H120.525C119.789 48.9426 119.347 48.5503 119.347 47.8146V15.7876C119.347 15.052 119.789 14.6105 120.525 14.6105H124.546C125.282 14.6105 125.674 15.052 125.674 15.7876V27.3625C127.44 25.1064 130.039 23.7821 133.669 23.7821ZM132.492 43.5966C136.366 43.5966 139.26 40.801 139.26 36.6812C139.26 32.5613 136.366 29.7657 132.492 29.7657C128.568 29.7657 125.674 32.5613 125.674 36.6812C125.674 40.801 128.568 43.5966 132.492 43.5966Z" fill="#001E28"/>
<path d="M159.369 23.7821C164.764 23.7821 169.325 27.0191 169.325 33.3951V47.8146C169.325 48.5503 168.933 48.9917 168.148 48.9917H164.323C163.587 48.9917 163.146 48.5503 163.146 47.8146V46.8337C161.723 48.5503 159.614 49.6293 156.524 49.6293C152.159 49.6293 148.236 47.0789 148.236 41.9291C148.236 36.7793 152.159 34.1798 156.524 34.1798C159.614 34.1798 161.723 35.1117 163.146 36.3869V33.7384C163.146 30.8447 161.674 29.6186 159.369 29.6186C157.505 29.6186 156.132 30.4033 155.74 31.7275C155.445 32.4142 155.2 32.7575 154.514 32.7575H150.59C149.854 32.7575 149.364 32.3651 149.413 31.5804C150.05 26.5287 154.317 23.7821 159.369 23.7821ZM158.633 44.9699C161.429 44.9699 163.146 43.6947 163.146 41.9291C163.146 40.0163 161.429 38.8882 158.633 38.8882C155.887 38.8882 154.563 40.1634 154.563 41.9291C154.563 43.6947 155.887 44.9699 158.633 44.9699Z" fill="#001E28"/>
<path d="M184.334 23.7821C189.73 23.7821 194.291 27.0191 194.291 33.3951V47.8146C194.291 48.5503 193.898 48.9917 193.114 48.9917H189.288C188.552 48.9917 188.111 48.5503 188.111 47.8146V46.8337C186.689 48.5503 184.58 49.6293 181.49 49.6293C177.125 49.6293 173.201 47.0789 173.201 41.9291C173.201 36.7793 177.125 34.1798 181.49 34.1798C184.58 34.1798 186.689 35.1117 188.111 36.3869V33.7384C188.111 30.8447 186.64 29.6186 184.334 29.6186C182.471 29.6186 181.097 30.4033 180.705 31.7275C180.411 32.4142 180.166 32.7575 179.479 32.7575H175.555C174.82 32.7575 174.329 32.3651 174.378 31.5804C175.016 26.5287 179.283 23.7821 184.334 23.7821ZM183.599 44.9699C186.394 44.9699 188.111 43.6947 188.111 41.9291C188.111 40.0163 186.394 38.8882 183.599 38.8882C180.852 38.8882 179.528 40.1634 179.528 41.9291C179.528 43.6947 180.852 44.9699 183.599 44.9699Z" fill="#001E28"/>
<path fill-rule="evenodd" clip-rule="evenodd" d="M16.6234 24.2892H23.8727C24.0939 24.2892 24.2849 24.4199 24.3754 24.621L27.6833 32.6143C27.7437 32.7551 27.7437 32.8958 27.6833 33.0265L24.3754 41.0199C24.2849 41.231 24.0939 41.3517 23.8727 41.3517H16.6234C16.4324 41.3517 16.2715 41.2612 16.171 41.1103C16.0704 40.9595 16.0503 40.7685 16.1207 40.5976L19.2476 33.0265C19.308 32.8858 19.308 32.745 19.2476 32.6143L16.1207 25.0433C16.0503 24.8723 16.0704 24.6914 16.171 24.5305C16.2715 24.3797 16.4324 24.2892 16.6234 24.2892ZM10.9627 24.2892H13.4764C13.6975 24.2892 13.8886 24.4199 13.9791 24.621L17.287 32.6143C17.3473 32.7551 17.3473 32.8958 17.287 33.0265L13.9791 41.0199C13.8886 41.231 13.6975 41.3517 13.4764 41.3517H10.9627C10.7717 41.3517 10.6108 41.2612 10.5103 41.1103C10.4097 40.9595 10.3896 40.7685 10.46 40.5976L13.587 33.0265C13.6473 32.8858 13.6473 32.745 13.587 32.6143L10.46 25.0433C10.3896 24.8723 10.4097 24.6914 10.5103 24.5305C10.6108 24.3797 10.7717 24.2892 10.9627 24.2892Z" fill="#FDB833"/>
</svg>
