<svg width="690" height="609" viewBox="0 0 690 609" fill="none" xmlns="http://www.w3.org/2000/svg">
<g id="Enabble Location">
<path id="Stroke 1" fill-rule="evenodd" clip-rule="evenodd" d="M624.437 332.521C624.437 482.897 502.53 604.804 352.154 604.804C201.778 604.804 79.8734 482.897 79.8734 332.521C79.8734 182.145 201.778 60.238 352.154 60.238C502.53 60.238 624.437 182.145 624.437 332.521Z" stroke="#FDB833" stroke-width="0.874468" stroke-dasharray="4.39 4.39"/>
<path id="Stroke 3" fill-rule="evenodd" clip-rule="evenodd" d="M554.353 332.522C554.353 444.192 463.825 534.721 352.155 534.721C240.481 534.721 149.958 444.192 149.958 332.522C149.958 220.851 240.481 130.323 352.155 130.323C463.825 130.323 554.353 220.851 554.353 332.522Z" stroke="#FDB833" stroke-width="0.874468" stroke-dasharray="4.41 4.41"/>
<path id="Stroke 5" d="M28.435 369.181L23.3797 369.026" stroke="#F1F2F7" stroke-width="0.874468" stroke-linecap="round"/>
<path id="Stroke 7" d="M24.8085 359.596L21.1829 362.983" stroke="#F1F2F7" stroke-width="0.874468" stroke-linecap="round"/>
<path id="Stroke 9" d="M15.359 355.219L15.2829 360.161" stroke="#F1F2F7" stroke-width="0.874468" stroke-linecap="round"/>
<path id="Stroke 11" d="M5.61987 358.612L9.14048 362.217" stroke="#F1F2F7" stroke-width="0.874468" stroke-linecap="round"/>
<path id="Stroke 13" d="M1.29648 367.79L6.34915 367.945" stroke="#F1F2F7" stroke-width="0.874468" stroke-linecap="round"/>
<path id="Stroke 15" d="M4.92178 377.375L8.54995 373.989" stroke="#F1F2F7" stroke-width="0.874468" stroke-linecap="round"/>
<path id="Stroke 17" d="M14.3726 381.754L14.4487 376.811" stroke="#F1F2F7" stroke-width="0.874468" stroke-linecap="round"/>
<path id="Stroke 19" d="M24.1116 378.359L20.591 374.755" stroke="#F1F2F7" stroke-width="0.874468" stroke-linecap="round"/>
<path id="Stroke 21" d="M687.704 298.716L685.482 301.122" stroke="#D2D8DF" stroke-width="0.874468" stroke-linecap="round"/>
<path id="Stroke 23" d="M677.272 300.806L678.948 302.352" stroke="#D2D8DF" stroke-width="0.874468" stroke-linecap="round"/>
<path id="Stroke 25" d="M675.58 311.469L677.802 309.063" stroke="#D2D8DF" stroke-width="0.874468" stroke-linecap="round"/>
<path id="Stroke 27" d="M686.01 309.378L684.337 307.833" stroke="#D2D8DF" stroke-width="0.874468" stroke-linecap="round"/>
<path id="Stroke 29" d="M484.188 15.9778L478.812 15.8335" stroke="#FAC454" stroke-width="0.874468" stroke-linecap="round"/>
<path id="Stroke 31" d="M470.279 3L470.197 7.59358" stroke="#FAC454" stroke-width="0.874468" stroke-linecap="round"/>
<path id="Stroke 33" d="M455.32 14.6851L460.695 14.8267" stroke="#FAC454" stroke-width="0.874468" stroke-linecap="round"/>
<path id="Stroke 35" d="M469.228 27.6619L469.31 23.0684" stroke="#FAC454" stroke-width="0.874468" stroke-linecap="round"/>
<path id="Fill 37" fill-rule="evenodd" clip-rule="evenodd" d="M86.1295 511.957C82.2626 513.114 75.8221 518.796 73.6185 525.533C73.2486 519.274 69.2741 511.406 64.9009 510.273C70.2369 508.387 76.0163 501.453 77.5536 495.611C77.2755 501.734 82.8345 510.625 86.1295 511.957Z" fill="#F1F2F7"/>
<path id="Fill 39" fill-rule="evenodd" clip-rule="evenodd" d="M176.696 40.5816C173.713 41.1089 168.427 44.7817 166.202 49.6088C166.467 44.9155 164.187 38.7112 161.029 37.4886C165.166 36.5442 170.072 31.8798 171.722 27.6614C170.985 32.1999 174.356 39.304 176.696 40.5816Z" fill="#F1F2F7"/>
<path id="Fill 41" fill-rule="evenodd" clip-rule="evenodd" d="M572.043 74.6636C568.058 74.577 564.9 71.2794 564.989 67.297C565.076 63.3147 568.373 60.1561 572.353 60.2427C576.338 60.3293 579.496 63.6269 579.41 67.6092C579.321 71.5916 576.026 74.7501 572.043 74.6636Z" fill="#FAC454"/>
<path id="Fill 43" fill-rule="evenodd" clip-rule="evenodd" d="M572.061 547.276C568.596 547.203 565.847 544.33 565.92 540.865C565.993 537.397 568.866 534.647 572.334 534.721C575.802 534.797 578.552 537.667 578.476 541.135C578.4 544.6 575.53 547.352 572.061 547.276Z" fill="#EBECEF"/>
<path id="Stroke 45" fill-rule="evenodd" clip-rule="evenodd" d="M50.675 170.382C48.529 170.335 46.8264 168.559 46.8737 166.41C46.9183 164.264 48.6969 162.564 50.8429 162.609C52.9888 162.656 54.6914 164.432 54.6468 166.578C54.5996 168.727 52.8209 170.429 50.675 170.382Z" stroke="#F1F2F7" stroke-width="0.874468" stroke-linecap="round"/>
<path id="Fill 47" fill-rule="evenodd" clip-rule="evenodd" d="M469.31 155.334C469.31 169.147 458.111 180.343 444.302 180.343C430.487 180.343 419.293 169.147 419.293 155.334C419.293 141.522 430.487 130.323 444.302 130.323C458.111 130.323 469.31 141.522 469.31 155.334Z" fill="white"/>
<path id="Fill 49" fill-rule="evenodd" clip-rule="evenodd" d="M192.536 485.85L155.279 255.867C154.725 252.462 156.291 249.062 159.235 247.267L257.641 187.199C259.577 186.019 261.902 185.659 264.1 186.202L385.488 216.225C387.762 216.786 390.168 216.382 392.135 215.11L473.34 162.565C478.115 159.475 484.521 161.865 486.1 167.329L554.424 403.231C555.424 406.686 554.138 410.396 551.218 412.492L476.457 466.07C474.429 467.52 471.871 468.008 469.455 467.405L327.253 431.855C325.265 431.359 323.161 431.598 321.337 432.529L204.774 492.052C199.648 494.667 193.46 491.532 192.536 485.85Z" fill="#F1F2F7"/>
<path id="Fill 51" fill-rule="evenodd" clip-rule="evenodd" d="M444.611 174.791C432.785 174.791 423.199 165.202 423.199 153.376C423.199 141.55 432.785 131.961 444.611 131.961C456.44 131.961 466.026 141.55 466.026 153.376C466.026 165.202 456.44 174.791 444.611 174.791ZM444.611 108.167C420.336 107.479 400.1 126.601 399.412 150.876C399.394 151.566 399.391 152.258 399.404 152.948C399.404 190.447 441.279 225.139 443.042 226.566C443.931 227.33 445.243 227.33 446.135 226.566C447.99 224.903 489.82 186.735 489.82 152.948C490.276 128.666 470.966 108.613 446.683 108.159C445.993 108.146 445.303 108.148 444.611 108.167Z" fill="url(#paint0_linear_423_334)"/>
<path id="Stroke 53" d="M275.962 381.49L348.442 400.399C356.068 402.388 362.068 393.838 357.587 387.356C332.568 351.174 285.74 276.184 329.8 279.332C387.782 283.474 376.738 335.837 389.162 342.789C401.589 349.739 476.136 334.214 478.896 306.775C481.658 279.332 471.996 265.528 452.667 257.245C433.34 248.961 443.042 226.567 443.042 226.567" stroke="#0E1D25" stroke-width="1.74894" stroke-dasharray="6.12"/>
<path id="Fill 55" fill-rule="evenodd" clip-rule="evenodd" d="M183.27 286.406L178.309 267.116C177.212 262.856 179.101 258.388 182.923 256.203L243.382 221.655C243.86 221.382 244.356 221.151 244.87 220.962L264.91 213.63C266.644 212.995 268.525 212.864 270.333 213.255L314.306 222.77C317.829 223.531 320.644 226.17 321.633 229.633C323.52 236.233 318.191 242.666 311.357 242.044L292.012 240.286C285.824 239.722 280.69 245.006 281.43 251.176L283.211 266.022C283.751 270.524 281.123 274.805 276.865 276.361L236.218 291.207C233.353 292.251 230.168 291.899 227.6 290.257L216.453 283.127C211.902 280.212 205.849 281.55 202.948 286.109L200.97 289.218C196.382 296.427 185.4 294.683 183.27 286.406Z" fill="#D8DBEA"/>
<path id="Fill 57" fill-rule="evenodd" clip-rule="evenodd" d="M450.488 373.707L464.366 433.187C465.961 440.024 474.038 442.996 479.684 438.822L525.89 404.668C529.122 402.284 530.56 398.162 529.518 394.282L518.678 353.882C517.246 348.541 511.671 345.453 506.388 347.072L457.141 362.148C452.227 363.651 449.321 368.704 450.488 373.707Z" fill="#D8DBEA"/>
<path id="Fill 59" fill-rule="evenodd" clip-rule="evenodd" d="M393.478 393.405L425.171 395.435C429.321 395.703 432.85 398.567 433.959 402.579L440.119 424.83C442.102 431.99 435.686 438.653 428.455 436.94L397.085 429.51C393.947 428.768 391.376 426.522 390.219 423.513L383.737 406.658C381.182 400.01 386.371 392.951 393.478 393.405Z" fill="#D8DBEA"/>
</g>
<defs>
<linearGradient id="paint0_linear_423_334" x1="399.396" y1="108.149" x2="399.396" y2="227.139" gradientUnits="userSpaceOnUse">
<stop stop-color="#FAD961"/>
<stop offset="1" stop-color="#F76B1C"/>
</linearGradient>
</defs>
</svg>
