<svg width="230" height="203" viewBox="0 0 230 203" fill="none" xmlns="http://www.w3.org/2000/svg">
<path fill-rule="evenodd" clip-rule="evenodd" d="M208.146 110.84C208.146 160.966 167.51 201.601 117.385 201.601C67.2593 201.601 26.6245 160.966 26.6245 110.84C26.6245 60.715 67.2593 20.0793 117.385 20.0793C167.51 20.0793 208.146 60.715 208.146 110.84Z" stroke="#FDB833" stroke-width="0.874468" stroke-dasharray="4.39 4.39"/>
<path fill-rule="evenodd" clip-rule="evenodd" d="M184.784 110.841C184.784 148.064 154.608 178.24 117.385 178.24C80.1605 178.24 49.9861 148.064 49.9861 110.841C49.9861 73.6171 80.1605 43.4409 117.385 43.4409C154.608 43.4409 184.784 73.6171 184.784 110.841Z" stroke="#FDB833" stroke-width="0.874468" stroke-dasharray="4.41 4.41"/>
<path d="M9.47834 123.06L7.79324 123.009" stroke="#F1F2F7" stroke-width="0.874468" stroke-linecap="round"/>
<path d="M8.26949 119.865L7.06097 120.994" stroke="#F1F2F7" stroke-width="0.874468" stroke-linecap="round"/>
<path d="M5.11966 118.406L5.0943 120.054" stroke="#F1F2F7" stroke-width="0.874468" stroke-linecap="round"/>
<path d="M1.87329 119.537L3.04683 120.739" stroke="#F1F2F7" stroke-width="0.874468" stroke-linecap="round"/>
<path d="M0.432159 122.597L2.11638 122.648" stroke="#F1F2F7" stroke-width="0.874468" stroke-linecap="round"/>
<path d="M1.64059 125.792L2.84998 124.663" stroke="#F1F2F7" stroke-width="0.874468" stroke-linecap="round"/>
<path d="M4.79086 127.251L4.81622 125.604" stroke="#F1F2F7" stroke-width="0.874468" stroke-linecap="round"/>
<path d="M8.03721 126.12L6.86368 124.918" stroke="#F1F2F7" stroke-width="0.874468" stroke-linecap="round"/>
<path d="M229.235 99.572L228.494 100.374" stroke="#D2D8DF" stroke-width="0.874468" stroke-linecap="round"/>
<path d="M225.757 100.269L226.316 100.784" stroke="#D2D8DF" stroke-width="0.874468" stroke-linecap="round"/>
<path d="M225.193 103.823L225.934 103.021" stroke="#D2D8DF" stroke-width="0.874468" stroke-linecap="round"/>
<path d="M228.67 103.126L228.112 102.611" stroke="#D2D8DF" stroke-width="0.874468" stroke-linecap="round"/>
<path d="M161.396 5.32593L159.604 5.27783" stroke="#FAC454" stroke-width="0.874468" stroke-linecap="round"/>
<path d="M156.76 1L156.732 2.53119" stroke="#FAC454" stroke-width="0.874468" stroke-linecap="round"/>
<path d="M151.773 4.89502L153.565 4.94224" stroke="#FAC454" stroke-width="0.874468" stroke-linecap="round"/>
<path d="M156.409 9.22065L156.437 7.68945" stroke="#FAC454" stroke-width="0.874468" stroke-linecap="round"/>
<path fill-rule="evenodd" clip-rule="evenodd" d="M28.7098 170.652C27.4209 171.038 25.274 172.932 24.5395 175.178C24.4162 173.091 23.0914 170.469 21.6336 170.091C23.4123 169.462 25.3388 167.151 25.8512 165.204C25.7585 167.245 27.6115 170.208 28.7098 170.652Z" fill="#F1F2F7"/>
<path fill-rule="evenodd" clip-rule="evenodd" d="M58.8986 13.5272C57.9043 13.703 56.1422 14.9272 55.4007 16.5363C55.489 14.9718 54.7291 12.9037 53.6762 12.4962C55.0553 12.1814 56.6905 10.6266 57.2406 9.22046C56.9948 10.7333 58.1185 13.1013 58.8986 13.5272Z" fill="#F1F2F7"/>
<path fill-rule="evenodd" clip-rule="evenodd" d="M190.681 24.8879C189.353 24.859 188.3 23.7598 188.33 22.4323C188.359 21.1049 189.458 20.052 190.784 20.0809C192.113 20.1098 193.165 21.209 193.137 22.5364C193.107 23.8639 192.009 24.9167 190.681 24.8879Z" fill="#FAC454"/>
<path fill-rule="evenodd" clip-rule="evenodd" d="M190.687 182.425C189.532 182.401 188.616 181.443 188.64 180.288C188.664 179.132 189.622 178.216 190.778 178.24C191.934 178.266 192.851 179.222 192.825 180.378C192.8 181.533 191.843 182.451 190.687 182.425Z" fill="#EBECEF"/>
<path fill-rule="evenodd" clip-rule="evenodd" d="M16.8917 56.794C16.1763 56.7782 15.6088 56.1862 15.6246 55.47C15.6394 54.7547 16.2323 54.1881 16.9476 54.2029C17.6629 54.2187 18.2305 54.8107 18.2156 55.526C18.1999 56.2422 17.607 56.8097 16.8917 56.794Z" stroke="#F1F2F7" stroke-width="0.874468" stroke-linecap="round"/>
<path fill-rule="evenodd" clip-rule="evenodd" d="M156.437 51.7781C156.437 56.3822 152.704 60.1144 148.101 60.1144C143.496 60.1144 139.764 56.3822 139.764 51.7781C139.764 47.174 143.496 43.4409 148.101 43.4409C152.704 43.4409 156.437 47.174 156.437 51.7781Z" fill="white"/>
<path fill-rule="evenodd" clip-rule="evenodd" d="M64.1787 161.95L51.7595 85.2889C51.575 84.1539 52.0971 83.0206 53.0782 82.4224L85.8804 62.3997C86.5257 62.0062 87.3005 61.8864 88.0333 62.0674L128.496 72.0748C129.254 72.262 130.056 72.1273 130.712 71.7032L157.78 54.1885C159.372 53.1583 161.507 53.955 162.033 55.7765L184.808 134.41C185.141 135.562 184.713 136.799 183.739 137.497L158.819 155.357C158.143 155.84 157.29 156.003 156.485 155.802L109.084 143.952C108.422 143.786 107.72 143.866 107.112 144.176L68.2581 164.017C66.5494 164.889 64.4865 163.844 64.1787 161.95Z" fill="#F1F2F7"/>
<path fill-rule="evenodd" clip-rule="evenodd" d="M148.204 58.2636C144.262 58.2636 141.066 55.0674 141.066 51.1253C141.066 47.1832 144.262 43.987 148.204 43.987C152.147 43.987 155.342 47.1832 155.342 51.1253C155.342 55.0674 152.147 58.2636 148.204 58.2636ZM148.204 36.0555C140.112 35.8264 133.367 42.2004 133.137 50.2919C133.131 50.5219 133.13 50.7527 133.135 50.9827C133.135 63.4824 147.093 75.0463 147.681 75.522C147.977 75.7765 148.414 75.7765 148.712 75.522C149.33 74.9676 163.273 62.245 163.273 50.9827C163.425 42.8886 156.989 36.2042 148.894 36.0529C148.664 36.0486 148.434 36.0494 148.204 36.0555Z" fill="url(#paint0_linear_516_52)"/>
<path d="M91.9875 127.163L116.147 133.466C118.689 134.129 120.689 131.279 119.196 129.119C110.856 117.058 95.2466 92.0613 109.933 93.1106C129.261 94.4914 125.579 111.946 129.721 114.263C133.863 116.58 158.712 111.405 159.632 102.258C160.553 93.1106 157.332 88.5092 150.889 85.7485C144.447 82.9869 147.681 75.5225 147.681 75.5225" stroke="#0E1D25" stroke-width="1.74894" stroke-dasharray="6.12"/>
<path fill-rule="evenodd" clip-rule="evenodd" d="M61.0899 95.4686L59.4363 89.0387C59.0708 87.6185 59.7004 86.1293 60.9745 85.4009L81.1275 73.885C81.2866 73.7941 81.4519 73.7171 81.6233 73.6542L88.3034 71.21C88.8814 70.9984 89.5084 70.9547 90.1109 71.085L104.769 74.2567C105.943 74.5103 106.881 75.39 107.211 76.5443C107.84 78.7444 106.064 80.8886 103.786 80.6814L97.3375 80.0955C95.2746 79.9075 93.5633 81.6687 93.8099 83.7254L94.4037 88.674C94.5838 90.1746 93.7076 91.6017 92.2883 92.1203L78.7393 97.0689C77.7844 97.417 76.7228 97.2998 75.8667 96.7524L72.1511 94.3755C70.6339 93.404 68.6165 93.85 67.6493 95.3698L66.99 96.4061C65.4605 98.8091 61.8 98.2276 61.0899 95.4686Z" fill="#D8DBEA"/>
<path fill-rule="evenodd" clip-rule="evenodd" d="M150.163 124.569L154.789 144.396C155.32 146.675 158.013 147.665 159.895 146.274L175.297 134.889C176.374 134.095 176.853 132.721 176.506 131.427L172.893 117.961C172.415 116.18 170.557 115.151 168.796 115.691L152.38 120.716C150.742 121.217 149.774 122.901 150.163 124.569Z" fill="#D8DBEA"/>
<path fill-rule="evenodd" clip-rule="evenodd" d="M131.159 131.135L141.724 131.812C143.107 131.901 144.283 132.856 144.653 134.193L146.706 141.61C147.367 143.997 145.229 146.218 142.818 145.647L132.362 143.17C131.316 142.923 130.459 142.174 130.073 141.171L127.912 135.553C127.061 133.337 128.79 130.984 131.159 131.135Z" fill="#D8DBEA"/>
<path d="M83.4312 141.339L101.097 131.144V111.795L83.4312 121.996V141.339Z" fill="#C99A6B"/>
<path d="M83.4315 141.339L63 129.544V110.201L83.4315 121.996V141.339Z" fill="#AE835B"/>
<path d="M83.4315 121.996L63 110.201L80.6657 100L101.097 111.795L83.4315 121.996Z" fill="#E8B687"/>
<path d="M74.652 126.189L71.3747 124.292V115.031L73.3792 116.19L74.652 116.928V126.189Z" fill="#BE966C"/>
<path d="M73.3792 116.19L71.3747 115.031L73.3792 116.19Z" fill="#EDC194"/>
<path d="M74.6522 116.928L73.3793 116.191L74.6522 116.928Z" fill="#C9A683"/>
<path d="M74.652 116.928L73.3791 116.191L71.3687 115.031L78.9821 110.635L82.2654 112.533L74.652 116.928ZM85.5488 110.635L82.2654 108.738L89.0343 104.83L92.3176 106.727L85.5488 110.635Z" fill="#F0CBA4"/>
<path d="M91.039 126.861V117.6L94.3223 115.703V124.964L91.039 126.861Z" fill="#D5AB7E"/>
<path d="M91.039 117.6L94.3223 115.703L91.039 117.6Z" fill="#EDC396"/>
<path d="M91.0447 126.862L91.8298 126.409L91.4373 125.523L91.0447 126.862Z" fill="#C99A6B"/>
<path d="M91.8716 126.379L92.6627 125.927L92.2701 125.047L91.8716 126.379Z" fill="#C99A6B"/>
<path d="M92.7045 125.898L93.4956 125.446L93.103 124.565L92.7045 125.898Z" fill="#C99A6B"/>
<path d="M93.5371 125.422L94.3222 124.964L93.9296 124.083L93.5371 125.422Z" fill="#C99A6B"/>
<path d="M74.6522 126.225L73.867 125.767L74.2596 124.886L74.6522 126.225Z" fill="#AE835B"/>
<path d="M73.8252 125.743L73.0341 125.291L73.4327 124.405L73.8252 125.743Z" fill="#AE835B"/>
<path d="M72.9927 125.261L72.2075 124.809L72.6001 123.929L72.9927 125.261Z" fill="#AE835B"/>
<path d="M72.1598 124.78L71.3747 124.328L71.7672 123.447L72.1598 124.78Z" fill="#AE835B"/>
<path d="M91.0388 117.6L82.2655 112.532L85.5488 110.635L94.3222 115.703L91.0388 117.6ZM78.9822 110.641L70.6074 105.805L73.8907 103.908L82.2655 108.743L78.9822 110.641Z" fill="#EEC498"/>
<path d="M82.2655 112.533L78.9821 110.635L82.2655 108.744L85.5488 110.635L82.2655 112.533Z" fill="#F4D5B1"/>
<defs>
<linearGradient id="paint0_linear_516_52" x1="133.132" y1="36.0496" x2="133.132" y2="75.7129" gradientUnits="userSpaceOnUse">
<stop stop-color="#FAD961"/>
<stop offset="1" stop-color="#F76B1C"/>
</linearGradient>
</defs>
</svg>
