<svg width="360" height="694" viewBox="0 0 360 694" fill="none" xmlns="http://www.w3.org/2000/svg">
<path fill-rule="evenodd" clip-rule="evenodd" d="M-294 581.711L-294 180.985C-294 170.602 -287.865 161.636 -278.426 157.388L96.7571 2.12382C103.364 -0.70772 109.971 -0.70772 116.106 2.12382L491.29 157.388C501.2 161.636 506.863 170.602 506.863 180.985L506.863 581.711C506.863 590.678 502.616 598.229 495.537 602.948C488.458 607.667 479.491 608.611 471.469 605.308L116.106 458.538C109.499 455.706 102.892 455.706 96.7572 458.538L-258.605 605.308C-266.628 608.611 -275.123 607.667 -282.674 602.948C-289.753 598.229 -294 590.678 -294 581.711ZM-294 822.407L-294 704.425C-294 694.043 -287.865 685.076 -278.426 680.829L96.7572 525.564C103.364 522.733 109.971 522.733 116.106 525.564L491.29 680.829C501.2 685.076 506.863 694.043 506.863 704.425L506.863 822.407C506.863 831.374 502.616 838.925 495.537 843.644C488.458 848.363 479.491 849.307 471.469 846.004L116.106 699.234C109.499 696.402 102.892 696.402 96.7572 699.234L-258.605 846.004C-266.628 849.307 -275.123 848.363 -282.674 843.644C-289.753 838.925 -294 831.374 -294 822.407Z" fill="#001E28"/>
</svg>
