<svg width="188" height="248" viewBox="0 0 188 248" fill="none" xmlns="http://www.w3.org/2000/svg">
<path d="M142.394 0.737366L188 19.6109V21.7753L141.592 2.57007L141.556 2.55328C139.976 1.8241 138.274 1.79959 136.463 2.57565L136.452 2.5806L136.44 2.58536L6.2017 56.4828C3.61652 57.6576 2 60.0756 2 62.84L2.00001 180.983C2.00001 183.403 3.11966 185.4 5.01781 186.676C7.12968 187.986 9.39386 188.205 11.528 187.326L134.876 136.382C137.542 135.164 140.409 135.192 143.169 136.372L143.182 136.377L188 154.888V157.051L142.394 138.215C140.1 137.232 137.806 137.232 135.676 138.215L12.2895 189.176C9.50385 190.323 6.55438 189.995 3.93263 188.356C1.47474 186.718 5.30027e-06 184.096 5.16418e-06 180.983L0 62.84C0 59.2351 2.13017 56.1218 5.40736 54.6471L135.676 0.737366C137.97 -0.245789 140.264 -0.245789 142.394 0.737366Z" fill="#001E28"/>
<path d="M142.394 170.168L188 189.041V191.206L141.592 172.001L141.556 171.984C139.976 171.255 138.274 171.23 136.463 172.006L136.452 172.011L6.20179 225.913C3.61657 227.088 2.00001 229.506 2.00001 232.271L2.00001 248H8.24251e-06L7.40605e-06 232.271C7.24847e-06 228.666 2.13018 225.552 5.40736 224.078L135.676 170.168C137.97 169.185 140.264 169.185 142.394 170.168Z" fill="#001E28"/>
<path d="M184.842 248L142.394 230.468C140.1 229.485 137.806 229.485 135.676 230.468L93.227 248H87.9878L134.876 228.634C137.542 227.417 140.409 227.445 143.169 228.624L143.182 228.63L188 247.14V248H184.842Z" fill="#001E28"/>
</svg>
