<svg width="21" height="16" viewBox="0 0 21 16" fill="none" xmlns="http://www.w3.org/2000/svg">
<path d="M1.57338 0H3.7505V0.90263C3.7505 1.01555 3.84191 1.10729 3.95499 1.10729H4.42891C4.54204 1.10729 4.63353 1.01551 4.63353 0.90263V0H6.81052C6.97379 0 7.10626 0.132392 7.10626 0.295656V4.94132C7.10626 5.10471 6.97379 5.23698 6.81052 5.23698H1.57338C1.41016 5.23698 1.27781 5.10475 1.27781 4.94132V0.295614C1.27781 0.132392 1.41016 0 1.57338 0Z" fill="#FDB833"/>
<path d="M4.60598 16C5.92841 16 7.00433 14.9242 7.00433 13.6015C7.00433 12.2788 5.92841 11.2029 4.60598 11.2029C3.28322 11.2029 2.20721 12.2788 2.20721 13.6015C2.20721 14.9242 3.28326 16 4.60598 16ZM4.60598 12.4116C5.26193 12.4116 5.79585 12.9454 5.79585 13.6015C5.79585 14.2574 5.26193 14.7914 4.60598 14.7914C3.94982 14.7914 3.41602 14.2574 3.41602 13.6015C3.41606 12.9454 3.94982 12.4116 4.60598 12.4116Z" fill="#001E28"/>
<path d="M17.9059 16C19.2284 16 20.3044 14.9242 20.3044 13.6015C20.3044 12.2788 19.2284 11.2029 17.9059 11.2029C16.5834 11.2029 15.5074 12.2788 15.5074 13.6015C15.5074 14.9242 16.5834 16 17.9059 16ZM17.9059 12.4116C18.562 12.4116 19.0958 12.9454 19.0958 13.6015C19.0958 14.2574 18.562 14.7914 17.9059 14.7914C17.2498 14.7914 16.716 14.2574 16.716 13.6015C16.716 12.9454 17.2498 12.4116 17.9059 12.4116Z" fill="#001E28"/>
<path d="M3.46012 8.90745V8.25013H1.7882C1.40988 8.25013 1.10312 7.94366 1.10312 7.56538V7.07783C1.10312 6.69971 1.40988 6.39307 1.7882 6.39307H10.1679C10.5462 6.39307 10.8529 6.69971 10.8529 7.07783V7.57263C10.8529 7.95083 10.5462 8.25747 10.1679 8.25747H9.24138V10.8896H13.8834C14.2235 10.3593 14.6694 9.90311 15.1911 9.55064L13.3651 2.96533H11.6776C11.2993 2.96533 10.9927 2.65853 10.9927 2.28033C10.9927 1.90222 11.2993 1.59558 11.6776 1.59558C11.6776 1.59558 13.4531 1.59558 14.0763 1.59558C14.1616 1.59558 14.3102 1.63134 14.383 1.66727C14.4886 1.71989 14.5808 1.79937 14.6481 1.90044L19.5075 9.18562C19.6523 9.39911 19.7591 9.66725 19.6792 9.90278C19.5551 10.2688 19.1353 10.3997 18.7053 10.2722C18.3787 10.1754 18.1076 10.133 17.7629 10.133C15.9787 10.133 14.5272 11.5846 14.5272 13.3688C14.5272 13.7471 14.2207 14.0538 13.8424 14.0538H8.52613C8.14785 14.0538 7.84113 13.7471 7.84113 13.3688C7.84113 11.5846 6.38978 10.133 4.60561 10.133C2.82145 10.133 1.36977 11.5846 1.36977 13.3688C1.36977 13.7471 1.06297 14.0538 0.684935 14.0538C0.306488 14.0538 -2.47955e-05 13.7471 -2.47955e-05 13.3688C-2.47955e-05 11.2245 1.47307 9.41792 3.46012 8.90745Z" fill="#001E28"/>
</svg>
