<svg width="19" height="19" viewBox="0 0 19 19" fill="none" xmlns="http://www.w3.org/2000/svg">
<path d="M9.5 12.6666C10.8117 12.6666 11.875 11.6033 11.875 10.2916C11.875 8.97995 10.8117 7.91663 9.5 7.91663C8.18832 7.91663 7.125 8.97995 7.125 10.2916C7.125 11.6033 8.18832 12.6666 9.5 12.6666Z" stroke="#B4AB8B" stroke-width="1.1875"/>
<path d="M1.58331 10.5795C1.58331 8.15369 1.58331 6.94071 2.17629 6.06939C2.43299 5.69219 2.76286 5.36832 3.14704 5.11629C3.71729 4.74219 4.4312 4.60847 5.52423 4.56068C6.04582 4.56068 6.49491 4.17262 6.5972 3.67045C6.75064 2.9172 7.42427 2.375 8.20663 2.375H10.7933C11.5757 2.375 12.2493 2.9172 12.4028 3.67045C12.5051 4.17262 12.9541 4.56068 13.4757 4.56068C14.5688 4.60847 15.2826 4.74219 15.8529 5.11629C16.2371 5.36832 16.567 5.69219 16.8237 6.06939C17.4166 6.94071 17.4166 8.15369 17.4166 10.5795C17.4166 13.0054 17.4166 14.2184 16.8237 15.0897C16.567 15.4669 16.2371 15.7907 15.8529 16.0428C14.9655 16.625 13.7301 16.625 11.2592 16.625H7.74072C5.26991 16.625 4.0345 16.625 3.14704 16.0428C2.76286 15.7907 2.43299 15.4669 2.17629 15.0897C2.0088 14.8436 1.88863 14.5702 1.80239 14.25" stroke="#B4AB8B" stroke-width="1.1875" stroke-linecap="round"/>
<path d="M15.0417 7.91663H14.25" stroke="#B4AB8B" stroke-width="1.1875" stroke-linecap="round"/>
</svg>
