<svg width="18" height="18" viewBox="0 0 18 18" fill="none" xmlns="http://www.w3.org/2000/svg">
<path d="M7 4H11.5L13.5 8H7V4Z" fill="#FDB833"/>
<path d="M6 12.75H12M6 12.75C6 13.5784 5.32843 14.25 4.5 14.25C3.67157 14.25 3 13.5784 3 12.75M6 12.75C6 11.9216 5.32843 11.25 4.5 11.25C3.67157 11.25 3 11.9216 3 12.75M12 12.75C12 13.5784 12.6716 14.25 13.5 14.25C14.3284 14.25 15 13.5784 15 12.75M12 12.75C12 11.9216 12.6716 11.25 13.5 11.25C14.3284 11.25 15 11.9216 15 12.75M3 12.75H2.7C2.27996 12.75 2.06994 12.75 1.90951 12.6683C1.76839 12.5963 1.65365 12.4817 1.58174 12.3405C1.5 12.1801 1.5 11.9701 1.5 11.55V10.65C1.5 9.80992 1.5 9.38985 1.66349 9.069C1.8073 8.78678 2.03677 8.55728 2.31902 8.4135C2.63988 8.25 3.05992 8.25 3.9 8.25H12.9C13.4574 8.25 13.7361 8.25 13.9693 8.2869C15.253 8.49023 16.2598 9.49703 16.4631 10.7807C16.5 11.0139 16.5 11.2926 16.5 11.85C16.5 11.9894 16.5 12.059 16.4908 12.1173C16.4399 12.4382 16.1882 12.6899 15.8673 12.7408C15.809 12.75 15.7393 12.75 15.6 12.75H15M7.5 3.75V8.25M3 8.25L3.24864 6.75816C3.42676 5.68945 3.51582 5.15509 3.78248 4.7541C4.01753 4.40062 4.34779 4.12085 4.73509 3.94711C5.17447 3.75 5.7162 3.75 6.79966 3.75H9.32332C10.0277 3.75 10.3799 3.75 10.6997 3.84709C10.9827 3.93304 11.246 4.07396 11.4745 4.26177C11.7326 4.47392 11.928 4.76698 12.3187 5.35308L14.25 8.25" stroke="#001E28" stroke-width="1.5" stroke-linecap="round" stroke-linejoin="round"/>
</svg>
