<svg width="15" height="15" viewBox="0 0 15 15" fill="none" xmlns="http://www.w3.org/2000/svg">
<path d="M10.5 1.5H14.25C14.4489 1.5 14.6397 1.57902 14.7803 1.71967C14.921 1.86032 15 2.05109 15 2.25C15 2.44891 14.921 2.63968 14.7803 2.78033C14.6397 2.92098 14.4489 3 14.25 3H0.75C0.551088 3 0.360322 2.92098 0.21967 2.78033C0.0790176 2.63968 0 2.44891 0 2.25C0 2.05109 0.0790176 1.86032 0.21967 1.71967C0.360322 1.57902 0.551088 1.5 0.75 1.5H4.5V0.75C4.5 0.551088 4.57902 0.360322 4.71967 0.21967C4.86032 0.0790176 5.05109 0 5.25 0H9.75C9.94891 0 10.1397 0.0790176 10.2803 0.21967C10.421 0.360322 10.5 0.551088 10.5 0.75V1.5Z" fill="#001E28"/>
<path d="M2.81625 13.7123L1.5 4.5H13.5L12.1838 13.7123C12.1327 14.0697 11.9544 14.3967 11.6816 14.6332C11.4088 14.8698 11.0598 15 10.6987 15H4.30125C3.94018 15 3.59122 14.8698 3.31843 14.6332C3.04565 14.3967 2.86734 14.0697 2.81625 13.7123Z" fill="#FDB833"/>
</svg>
