<svg width="142" height="142" viewBox="0 0 142 142" fill="none" xmlns="http://www.w3.org/2000/svg">
<path d="M64.128 7.74903C68.4707 5.65772 73.5293 5.65772 77.872 7.74902L116.167 26.1909C120.51 28.2823 123.664 32.2373 124.736 36.9364L134.194 78.375C135.267 83.0741 134.141 88.0059 131.136 91.7743L104.635 125.006C101.63 128.774 97.0721 130.969 92.2522 130.969H49.7478C44.9279 130.969 40.3702 128.774 37.365 125.006L10.864 91.7743C7.85882 88.0059 6.73316 83.0741 7.80571 78.375L17.2638 36.9364C18.3363 32.2373 21.4904 28.2823 25.833 26.191L64.128 7.74903Z" fill="#FDB833" stroke="#001E28" stroke-width="8"/>
<path d="M65.4987 66.9777L65.4987 61.7481C65.4987 61.3506 65.3104 61.0159 64.9966 60.8068C64.6619 60.5976 64.2854 60.5557 63.9298 60.7022L48.1781 67.2078C47.9062 67.3333 47.6133 67.3333 47.3205 67.2078L31.5688 60.7022C31.2132 60.5557 30.8158 60.5976 30.502 60.8068C30.1882 61.0159 29.9999 61.3506 29.9999 61.7481L29.9999 66.9777C29.9999 67.4379 30.251 67.8354 30.6903 68.0236L47.3205 74.9058C47.5924 75.0313 47.8853 75.0313 48.1781 74.9058L64.8083 68.0236C65.2267 67.8354 65.4987 67.4379 65.4987 66.9777Z" fill="#001E28"/>
<path d="M112.936 66.9777L112.936 61.7481C112.936 61.3506 112.747 61.0159 112.434 60.8068C112.099 60.5976 111.722 60.5557 111.367 60.7022L95.615 67.2078C95.3431 67.3333 95.0502 67.3333 94.7574 67.2078L79.0057 60.7022C78.6501 60.5557 78.2527 60.5976 77.9389 60.8068C77.6251 61.0159 77.4368 61.3506 77.4368 61.7481L77.4368 66.9777C77.4368 67.4379 77.6879 67.8354 78.1271 68.0236L94.7574 74.9058C95.0293 75.0313 95.3222 75.0313 95.615 74.9058L112.245 68.0236C112.664 67.8354 112.936 67.4379 112.936 66.9777Z" fill="#001E28"/>
</svg>
