<svg width="142" height="142" viewBox="0 0 142 142" fill="none" xmlns="http://www.w3.org/2000/svg">
<path d="M64.128 7.74903C68.4707 5.65772 73.5293 5.65772 77.872 7.74902L116.167 26.1909C120.51 28.2823 123.664 32.2373 124.736 36.9364L134.194 78.375C135.267 83.0741 134.141 88.0059 131.136 91.7743L104.635 125.006C101.63 128.774 97.0721 130.969 92.2522 130.969H49.7478C44.9279 130.969 40.3702 128.774 37.365 125.006L10.864 91.7743C7.85882 88.0059 6.73316 83.0741 7.80571 78.375L17.2638 36.9364C18.3363 32.2373 21.4904 28.2823 25.833 26.191L64.128 7.74903Z" fill="#FDB833" stroke="#001E28" stroke-width="8"/>
<path fill-rule="evenodd" clip-rule="evenodd" d="M63.012 42.7562L85.676 42.7562C86.3676 42.7562 86.9648 43.1649 87.2477 43.7936L97.5896 68.7837C97.7782 69.2237 97.7782 69.6638 97.5896 70.0725L87.2477 95.0626C86.9648 95.7227 86.3676 96.0999 85.676 96.0999H63.012C62.4148 96.0999 61.9119 95.817 61.5975 95.3455C61.2832 94.874 61.2203 94.2767 61.4403 93.7423L71.2163 70.0725C71.405 69.6324 71.405 69.1923 71.2163 68.7837L61.4403 45.1138C61.2203 44.5794 61.2832 44.0136 61.5975 43.5106C61.9119 43.0391 62.4148 42.7562 63.012 42.7562ZM45.3146 42.7562H53.1732C53.8647 42.7562 54.462 43.1649 54.7449 43.7936L65.0867 68.7837C65.2753 69.2237 65.2753 69.6638 65.0867 70.0725L54.7449 95.0626C54.462 95.7227 53.8647 96.0999 53.1732 96.0999H45.3146C44.7174 96.0999 44.2144 95.817 43.9001 95.3455C43.5858 94.874 43.5229 94.2767 43.7429 93.7423L53.5189 70.0725C53.7076 69.6324 53.7076 69.1923 53.5189 68.7837L43.7429 45.1138C43.5229 44.5794 43.5858 44.0136 43.9001 43.5106C44.2144 43.0391 44.7174 42.7562 45.3146 42.7562Z" fill="#001E28"/>
</svg>
