<svg width="142" height="142" viewBox="0 0 142 142" fill="none" xmlns="http://www.w3.org/2000/svg">
<path d="M64.128 7.74903C68.4707 5.65772 73.5293 5.65772 77.872 7.74902L116.167 26.1909C120.51 28.2823 123.664 32.2373 124.736 36.9364L134.194 78.375C135.267 83.0741 134.141 88.0059 131.136 91.7743L104.635 125.006C101.63 128.774 97.0721 130.969 92.2522 130.969H49.7478C44.9279 130.969 40.3702 128.774 37.365 125.006L10.864 91.7743C7.85882 88.0059 6.73316 83.0741 7.80571 78.375L17.2638 36.9364C18.3363 32.2373 21.4904 28.2823 25.833 26.191L64.128 7.74903Z" fill="#FDB833" stroke="#001E28" stroke-width="8"/>
<path fill-rule="evenodd" clip-rule="evenodd" d="M44 77.0878L44 54.4238C44 53.7323 44.4086 53.135 45.0373 52.8521L70.0274 42.5103C70.4675 42.3217 70.9076 42.3217 71.3162 42.5103L96.3063 52.8521C96.9665 53.135 97.3437 53.7323 97.3437 54.4238L97.3437 77.0878C97.3437 77.6851 97.0608 78.188 96.5893 78.5023C96.1177 78.8167 95.5205 78.8796 94.9861 78.6595L71.3162 68.8835C70.8762 68.6949 70.4361 68.6949 70.0274 68.8835L46.3576 78.6595C45.8232 78.8796 45.2574 78.8167 44.7544 78.5023C44.2829 78.188 44 77.6851 44 77.0878ZM44 94.7852L44 86.9267C44 86.2351 44.4086 85.6379 45.0373 85.355L70.0274 75.0132C70.4675 74.8245 70.9076 74.8245 71.3162 75.0132L96.3064 85.355C96.9665 85.6379 97.3437 86.2351 97.3437 86.9267L97.3437 94.7852C97.3437 95.3825 97.0608 95.8854 96.5893 96.1997C96.1177 96.5141 95.5205 96.577 94.9861 96.3569L71.3162 86.5809C70.8762 86.3923 70.4361 86.3923 70.0274 86.5809L46.3576 96.3569C45.8232 96.577 45.2574 96.5141 44.7544 96.1997C44.2829 95.8854 44 95.3825 44 94.7852Z" fill="#001E28"/>
</svg>
