<svg width="20" height="16" viewBox="0 0 20 16" fill="none" xmlns="http://www.w3.org/2000/svg">
<path d="M18.2399 6.80995L16.9999 6.49995L16.2099 3.72995C16.1494 3.51365 16.0178 3.32401 15.8364 3.19158C15.655 3.05915 15.4343 2.99165 15.2099 2.99995H10.9999V13H12.9999C12.9999 12.4695 13.2106 11.9608 13.5857 11.5857C13.9607 11.2107 14.4694 11 14.9999 11C15.5303 11 16.039 11.2107 16.4141 11.5857C16.7892 11.9608 16.9999 12.4695 16.9999 13H17.9999C18.2651 13 18.5195 12.8946 18.707 12.7071C18.8945 12.5195 18.9999 12.2652 18.9999 12V7.77995C18.9997 7.55662 18.9248 7.33978 18.787 7.16398C18.6493 6.98818 18.4567 6.86355 18.2399 6.80995Z" fill="#FDB833"/>
<path d="M7.16994 13H10.9999V2C10.9999 1.73478 10.8946 1.48043 10.707 1.29289C10.5195 1.10536 10.2652 1 9.99994 1H2.99994" stroke="#001E28" stroke-width="2" stroke-linecap="round" stroke-linejoin="round"/>
<path d="M0.999878 9V12C0.999878 12.2652 1.10523 12.5196 1.29277 12.7071C1.48031 12.8946 1.73466 13 1.99988 13H2.86988" stroke="#001E28" stroke-width="2" stroke-linecap="round" stroke-linejoin="round"/>
<path d="M12.8699 13H10.9999V2.99995H15.2499C15.4743 2.99165 15.695 3.05915 15.8764 3.19158C16.0578 3.32401 16.1894 3.51365 16.2499 3.72995L16.9999 6.49995L18.2399 6.80995C18.4618 6.8647 18.6582 6.9938 18.7965 7.17575C18.9347 7.35769 19.0065 7.58152 18.9999 7.80995V12C18.9999 12.2652 18.8945 12.5195 18.707 12.7071C18.5195 12.8946 18.2651 13 17.9999 13H17.1099" stroke="#001E28" stroke-width="2" stroke-linecap="round" stroke-linejoin="round"/>
<path d="M0.999878 5H6.99988M6.99988 13C6.99988 13.3956 6.88258 13.7822 6.66282 14.1111C6.44306 14.44 6.1307 14.6964 5.76525 14.8478C5.39979 14.9991 4.99766 15.0387 4.6097 14.9616C4.22174 14.8844 3.86537 14.6939 3.58566 14.4142C3.30596 14.1345 3.11548 13.7781 3.03831 13.3902C2.96114 13.0022 3.00074 12.6001 3.15212 12.2346C3.30349 11.8692 3.55984 11.5568 3.88874 11.3371C4.21764 11.1173 4.60432 11 4.99988 11C5.53031 11 6.03902 11.2107 6.41409 11.5858C6.78917 11.9609 6.99988 12.4696 6.99988 13ZM14.9999 11C14.6043 11 14.2176 11.1173 13.8887 11.3371C13.5598 11.5568 13.3035 11.8692 13.1521 12.2346C13.0007 12.6001 12.9611 13.0022 13.0383 13.3902C13.1155 13.7781 13.306 14.1345 13.5857 14.4142C13.8654 14.6939 14.2217 14.8844 14.6097 14.9616C14.9977 15.0387 15.3998 14.9991 15.7652 14.8478C16.1307 14.6964 16.4431 14.44 16.6628 14.1111C16.8826 13.7822 16.9999 13.3956 16.9999 13C16.9999 12.4696 16.7892 11.9609 16.4141 11.5858C16.039 11.2107 15.5303 11 14.9999 11Z" stroke="#001E28" stroke-width="2" stroke-linecap="round" stroke-linejoin="round"/>
</svg>
