<svg width="142" height="142" viewBox="0 0 142 142" fill="none" xmlns="http://www.w3.org/2000/svg">
<path d="M64.128 7.74903C68.4707 5.65772 73.5293 5.65772 77.872 7.74902L116.167 26.1909C120.51 28.2823 123.664 32.2373 124.736 36.9364L134.194 78.375C135.267 83.0741 134.141 88.0059 131.136 91.7743L104.635 125.006C101.63 128.774 97.0721 130.969 92.2522 130.969H49.7478C44.9279 130.969 40.3702 128.774 37.365 125.006L10.864 91.7743C7.85882 88.0059 6.73316 83.0741 7.80571 78.375L17.2638 36.9364C18.3363 32.2373 21.4904 28.2823 25.833 26.191L64.128 7.74903Z" fill="#FDB833" stroke="#001E28" stroke-width="8"/>
<path d="M50.2329 46C48.6806 46 47.2684 46.8981 46.6102 48.304L38.1367 66.4038C37.449 67.8728 37.7165 69.6117 38.8138 70.8061L68.2034 102.794C69.7883 104.519 72.5096 104.519 74.0945 102.794L103.484 70.8061C104.581 69.6117 104.849 67.8728 104.161 66.4038L95.6876 48.304C95.0294 46.8981 93.6173 46 92.065 46H50.2329Z" fill="#001E28"/>
<path d="M70.0979 56.8541C70.6966 55.0115 73.3034 55.0115 73.9021 56.8541L76.0413 63.4377C76.309 64.2617 77.0769 64.8197 77.9434 64.8197H84.8658C86.8032 64.8197 87.6088 67.2989 86.0413 68.4377L80.441 72.5066C79.74 73.0159 79.4467 73.9186 79.7145 74.7426L81.8536 81.3262C82.4523 83.1689 80.3433 84.7011 78.7759 83.5623L73.1756 79.4934C72.4746 78.9841 71.5254 78.9841 70.8244 79.4934L65.2241 83.5623C63.6567 84.7011 61.5477 83.1689 62.1464 81.3262L64.2855 74.7426C64.5533 73.9186 64.26 73.0159 63.559 72.5066L57.9587 68.4377C56.3912 67.2989 57.1968 64.8197 59.1342 64.8197H66.0566C66.9231 64.8197 67.691 64.2617 67.9587 63.4377L70.0979 56.8541Z" fill="#FDB833"/>
</svg>
