<svg width="22" height="26" viewBox="0 0 22 26" fill="none" xmlns="http://www.w3.org/2000/svg">
<path fill-rule="evenodd" clip-rule="evenodd" d="M1.4731 0.870071C0.603028 1.74013 0.603027 3.14048 0.603027 5.94118V19.3088C0.603027 22.1095 0.603028 23.5098 1.4731 24.3799C2.34315 25.25 3.7435 25.25 6.5442 25.25H15.456C18.2566 25.25 19.657 25.25 20.5271 24.3799C21.3971 23.5098 21.3971 22.1095 21.3971 19.3088V5.94118C21.3971 3.14048 21.3971 1.74013 20.5271 0.870071C19.657 2.83297e-07 18.2566 0 15.456 0H6.5442C3.7435 0 2.34315 2.83297e-07 1.4731 0.870071ZM6.5442 5.94118C5.72391 5.94118 5.05891 6.60617 5.05891 7.42647C5.05891 8.24677 5.72391 8.91176 6.5442 8.91176H15.456C16.2763 8.91176 16.9413 8.24677 16.9413 7.42647C16.9413 6.60617 16.2763 5.94118 15.456 5.94118H6.5442ZM6.5442 11.8824C5.72391 11.8824 5.05891 12.5473 5.05891 13.3676C5.05891 14.188 5.72391 14.8529 6.5442 14.8529H15.456C16.2763 14.8529 16.9413 14.188 16.9413 13.3676C16.9413 12.5473 16.2763 11.8824 15.456 11.8824H6.5442ZM6.5442 17.8235C5.72391 17.8235 5.05891 18.4885 5.05891 19.3088C5.05891 20.1292 5.72391 20.7941 6.5442 20.7941H12.4854C13.3057 20.7941 13.9707 20.1292 13.9707 19.3088C13.9707 18.4885 13.3057 17.8235 12.4854 17.8235H6.5442Z" fill="#5E6657"/>
</svg>
