<svg width="24" height="26" viewBox="0 0 24 26" fill="none" xmlns="http://www.w3.org/2000/svg">
<path d="M13.1725 25.8481L23.8827 19.6672V7.93652L13.1725 14.121V25.8481Z" fill="#C99A6B"/>
<path d="M13.1727 25.8481L0.785706 18.6972V6.97009L13.1727 14.121V25.8481Z" fill="#AE835B"/>
<path d="M13.1727 14.121L0.785706 6.97012L11.4959 0.785645L23.8828 7.93656L13.1727 14.121Z" fill="#E8B687"/>
<path d="M7.84997 16.6634L5.86301 15.513V9.89832L7.07827 10.6015L7.84997 11.0487V16.6634Z" fill="#BE966C"/>
<path d="M7.07827 10.6015L5.86301 9.89832L7.07827 10.6015Z" fill="#EDC194"/>
<path d="M7.85005 11.0486L7.07834 10.6014L7.85005 11.0486Z" fill="#C9A683"/>
<path d="M7.84995 11.0486L7.07824 10.6014L5.85938 9.89823L10.4752 7.23331L12.4658 8.38366L7.84995 11.0486ZM14.4563 7.23331L12.4658 6.08296L16.5695 3.71375L18.5601 4.86409L14.4563 7.23331Z" fill="#F0CBA4"/>
<path d="M17.7849 17.0708V11.4561L19.7755 10.3058V15.9205L17.7849 17.0708Z" fill="#D5AB7E"/>
<path d="M17.7849 11.4561L19.7755 10.3058L17.7849 11.4561Z" fill="#EDC396"/>
<path d="M17.7884 17.0709L18.2644 16.7968L18.0264 16.2595L17.7884 17.0709Z" fill="#C99A6B"/>
<path d="M18.2897 16.7787L18.7693 16.5047L18.5313 15.9709L18.2897 16.7787Z" fill="#C99A6B"/>
<path d="M18.7946 16.4866L19.2743 16.2125L19.0363 15.6788L18.7946 16.4866Z" fill="#C99A6B"/>
<path d="M19.2994 16.1981L19.7754 15.9204L19.5374 15.3867L19.2994 16.1981Z" fill="#C99A6B"/>
<path d="M7.85006 16.685L7.37405 16.4074L7.61206 15.8737L7.85006 16.685Z" fill="#AE835B"/>
<path d="M7.34872 16.3929L6.86911 16.1189L7.11072 15.5815L7.34872 16.3929Z" fill="#AE835B"/>
<path d="M6.84396 16.1007L6.36795 15.8267L6.60595 15.293L6.84396 16.1007Z" fill="#AE835B"/>
<path d="M6.33901 15.8087L5.86301 15.5347L6.10101 15.001L6.33901 15.8087Z" fill="#AE835B"/>
<path d="M17.7848 11.4561L12.4658 8.38365L14.4564 7.2333L19.7754 10.3057L17.7848 11.4561ZM10.4752 7.2369L5.39783 4.30513L7.3884 3.15479L12.4658 6.08655L10.4752 7.2369Z" fill="#EEC498"/>
<path d="M12.4658 8.38376L10.4752 7.23341L12.4658 6.08667L14.4563 7.23341L12.4658 8.38376Z" fill="#F4D5B1"/>
</svg>
