<svg width="14" height="12" viewBox="0 0 14 12" fill="none" xmlns="http://www.w3.org/2000/svg">
<path d="M2.78732 0C2.39098 0 2.03043 0.229311 1.86238 0.588262L0.290222 3.94645C0.114636 4.32151 0.182924 4.76547 0.463106 5.07042L6.07774 11.1815C6.48238 11.6219 7.17719 11.6219 7.58184 11.1815L13.1965 5.07042C13.4766 4.76547 13.5449 4.32151 13.3694 3.94645L11.7972 0.588262C11.6291 0.229311 11.2686 0 10.8723 0H2.78732Z" fill="#FDB833"/>
<path d="M6.84106 1.48916C6.89109 1.33519 7.10891 1.3352 7.15894 1.48916L7.86054 3.64846C7.88291 3.71731 7.94707 3.76393 8.01947 3.76393H10.2899C10.4518 3.76393 10.5191 3.97109 10.3881 4.06625L8.55131 5.40077C8.49274 5.44332 8.46823 5.51876 8.49061 5.58761L9.1922 7.7469C9.24223 7.90087 9.06601 8.02891 8.93503 7.93375L7.09823 6.59923C7.03966 6.55668 6.96034 6.55668 6.90177 6.59923L5.06497 7.93375C4.93399 8.02891 4.75777 7.90087 4.8078 7.7469L5.50939 5.58761C5.53177 5.51876 5.50726 5.44332 5.44869 5.40077L3.61188 4.06625C3.48091 3.97109 3.54822 3.76393 3.71011 3.76393H5.98053C6.05293 3.76393 6.11709 3.71731 6.13946 3.64846L6.84106 1.48916Z" fill="#001E28"/>
</svg>
