<svg width="12" height="12" viewBox="0 0 12 12" fill="none" xmlns="http://www.w3.org/2000/svg">
<path d="M2.47493 3.51723L2.47493 9.89958H8.83888V3.51723L6.10451 1.27995C5.9782 1.17667 5.82006 1.12025 5.65691 1.12025C5.49375 1.12025 5.33562 1.17667 5.20931 1.27995L2.47493 3.51723ZM6.5521 0.73265L9.41588 3.076C9.4565 3.10912 9.48924 3.15085 9.51174 3.19818C9.53424 3.24551 9.54594 3.29725 9.54599 3.34965V10.2531C9.54599 10.3469 9.50874 10.4368 9.44244 10.5031C9.37613 10.5694 9.28621 10.6067 9.19244 10.6067H2.12138C2.02761 10.6067 1.93768 10.5694 1.87138 10.5031C1.80507 10.4368 1.76782 10.3469 1.76782 10.2531L1.76782 3.34965C1.76779 3.2973 1.77938 3.2456 1.80176 3.19828C1.82413 3.15095 1.85674 3.10919 1.89722 3.076L4.761 0.73265C5.01367 0.525915 5.33009 0.412964 5.65655 0.412964C5.98302 0.412964 6.29943 0.525915 6.5521 0.73265Z" fill="black"/>
<path d="M5.65713 4.95005C5.84467 4.95005 6.02452 4.87556 6.15713 4.74295C6.28974 4.61034 6.36424 4.43048 6.36424 4.24295C6.36424 4.05541 6.28974 3.87556 6.15713 3.74295C6.02452 3.61034 5.84467 3.53584 5.65713 3.53584C5.4696 3.53584 5.28974 3.61034 5.15713 3.74295C5.02452 3.87556 4.95003 4.05541 4.95003 4.24295C4.95003 4.43048 5.02452 4.61034 5.15713 4.74295C5.28974 4.87556 5.4696 4.95005 5.65713 4.95005ZM5.65713 5.65716C5.28206 5.65716 4.92235 5.50816 4.65713 5.24295C4.39192 4.97773 4.24292 4.61802 4.24292 4.24295C4.24292 3.86788 4.39192 3.50816 4.65713 3.24295C4.92235 2.97773 5.28206 2.82874 5.65713 2.82874C6.0322 2.82874 6.39192 2.97773 6.65713 3.24295C6.92235 3.50816 7.07134 3.86788 7.07134 4.24295C7.07134 4.61802 6.92235 4.97773 6.65713 5.24295C6.39192 5.50816 6.0322 5.65716 5.65713 5.65716Z" fill="black"/>
</svg>
