<svg width="14" height="14" viewBox="0 0 14 14" fill="none" xmlns="http://www.w3.org/2000/svg">
<g clip-path="url(#clip0_14_1307)">
<path d="M5.25 14H0.583333C0.428624 14 0.280251 13.9385 0.170854 13.8292C0.0614582 13.7198 0 13.5714 0 13.4167C0 13.262 0.0614582 13.1136 0.170854 13.0042C0.280251 12.8948 0.428624 12.8333 0.583333 12.8333H5.25C5.40471 12.8333 5.55308 12.8948 5.66248 13.0042C5.77187 13.1136 5.83333 13.262 5.83333 13.4167C5.83333 13.5714 5.77187 13.7198 5.66248 13.8292C5.55308 13.9385 5.40471 14 5.25 14ZM4.08333 11.6667H0.583333C0.428624 11.6667 0.280251 11.6052 0.170854 11.4958C0.0614582 11.3864 0 11.238 0 11.0833C0 10.9286 0.0614582 10.7803 0.170854 10.6709C0.280251 10.5615 0.428624 10.5 0.583333 10.5H4.08333C4.23804 10.5 4.38642 10.5615 4.49581 10.6709C4.60521 10.7803 4.66667 10.9286 4.66667 11.0833C4.66667 11.238 4.60521 11.3864 4.49581 11.4958C4.38642 11.6052 4.23804 11.6667 4.08333 11.6667ZM2.91667 9.33334H0.583333C0.428624 9.33334 0.280251 9.27188 0.170854 9.16248C0.0614582 9.05309 0 8.90471 0 8.75C0 8.59529 0.0614582 8.44692 0.170854 8.33753C0.280251 8.22813 0.428624 8.16667 0.583333 8.16667H2.91667C3.07138 8.16667 3.21975 8.22813 3.32915 8.33753C3.43854 8.44692 3.5 8.59529 3.5 8.75C3.5 8.90471 3.43854 9.05309 3.32915 9.16248C3.21975 9.27188 3.07138 9.33334 2.91667 9.33334ZM7.58333 13.9738C7.42862 13.9806 7.27752 13.9258 7.16325 13.8213C7.04899 13.7167 6.98093 13.5711 6.97404 13.4164C6.96716 13.2617 7.02201 13.1106 7.12654 12.9963C7.23107 12.882 7.37671 12.814 7.53142 12.8071C8.63535 12.7061 9.68765 12.2926 10.5651 11.6151C11.4425 10.9376 12.1087 10.0241 12.4856 8.9816C12.8626 7.93911 12.9347 6.8108 12.6935 5.72881C12.4523 4.64682 11.9078 3.65596 11.1237 2.87228C10.3397 2.0886 9.34858 1.54455 8.26648 1.30385C7.18439 1.06316 6.0561 1.13578 5.01379 1.51321C3.97148 1.89064 3.05829 2.55726 2.38118 3.43498C1.70407 4.3127 1.29108 5.36519 1.19058 6.46917C1.18369 6.54547 1.16183 6.61966 1.12627 6.68751C1.0907 6.75537 1.04212 6.81555 0.983289 6.86462C0.924463 6.9137 0.856547 6.95071 0.783419 6.97354C0.71029 6.99636 0.633381 7.00457 0.557083 6.99767C0.480785 6.99078 0.406592 6.96892 0.338741 6.93335C0.270889 6.89779 0.210707 6.8492 0.161631 6.79038C0.112555 6.73155 0.0755468 6.66363 0.0527184 6.59051C0.0298901 6.51738 0.0216889 6.44047 0.0285833 6.36417C0.191269 4.56943 1.03985 2.90658 2.39769 1.72175C3.75553 0.536924 5.51801 -0.0785899 7.31824 0.00333791C9.11847 0.0852657 10.8178 0.858322 12.0624 2.16159C13.307 3.46485 14.001 5.19791 14 7C14.0089 8.74904 13.3592 10.4373 12.1799 11.7291C11.0007 13.0208 9.37844 13.8214 7.63583 13.9714C7.61833 13.9732 7.60025 13.9738 7.58333 13.9738ZM7 3.5C6.84529 3.5 6.69692 3.56146 6.58752 3.67086C6.47812 3.78025 6.41667 3.92863 6.41667 4.08334V7C6.4167 7.1547 6.47818 7.30305 6.58758 7.41242L8.33758 9.16242C8.4476 9.26868 8.59495 9.32748 8.7479 9.32615C8.90085 9.32482 9.04716 9.26347 9.15531 9.15532C9.26346 9.04716 9.32481 8.90085 9.32614 8.7479C9.32747 8.59496 9.26867 8.44761 9.16242 8.33759L7.58333 6.7585V4.08334C7.58333 3.92863 7.52187 3.78025 7.41248 3.67086C7.30308 3.56146 7.15471 3.5 7 3.5Z" fill="black"/>
</g>
<defs>
<clipPath id="clip0_14_1307">
<rect width="14" height="14" fill="white"/>
</clipPath>
</defs>
</svg>
