<svg width="24" height="24" viewBox="0 0 24 24" fill="none" xmlns="http://www.w3.org/2000/svg">
<path d="M19.7695 11.6456C19.039 10.7925 18.7071 10.0523 18.7071 8.79633V8.3703C18.7071 6.73265 18.3314 5.67916 17.5125 4.62466C16.2502 2.98702 14.1254 2 12.0452 2H11.9558C9.91935 2 7.86106 2.9417 6.577 4.51186C5.71333 5.58852 5.29392 6.68834 5.29392 8.3703V8.79633C5.29392 10.0523 4.98384 10.7925 4.23049 11.6456C3.6779 12.2741 3.5 13.0808 3.5 13.956C3.5 14.8302 3.78822 15.6601 4.36367 16.3339C5.11602 17.1417 6.17846 17.6573 7.26375 17.747C8.83505 17.9263 10.4063 17.9937 12.0005 17.9937C13.5937 17.9937 15.1659 17.8809 16.7372 17.747C17.8215 17.6573 18.884 17.1417 19.6373 16.3339C20.2128 15.6601 20.5 14.8302 20.5 13.956C20.5 13.0808 20.3231 12.2741 19.7695 11.6456Z" fill="#FDB833"/>
<path d="M9.96324 19.228C9.53588 19.3267 9.07373 19.5573 9.07373 20.0609C9.09858 20.5403 9.37984 20.9654 9.76943 21.2343C10.2723 21.6281 10.8637 21.8768 11.4829 21.9665C11.8128 22.0118 12.1487 22.0108 12.4906 21.9665C13.1088 21.8768 13.7002 21.6281 14.204 21.2353C14.5926 20.9654 14.8739 20.5403 14.8988 20.0609C14.8988 19.5573 14.4366 19.3267 14.0092 19.228C13.5093 19.1222 10.4631 19.1222 9.96324 19.228Z" fill="#001E28"/>
</svg>
