<svg width="20" height="22" viewBox="0 0 20 22" fill="none" xmlns="http://www.w3.org/2000/svg">
<path d="M5.73193 11.077C5.73193 10.626 6.10593 10.252 6.55693 10.252H12.585V0.946C12.574 0.418 12.156 0 11.628 0C5.14893 0 0.62793 4.521 0.62793 11C0.62793 17.479 5.14893 22 11.628 22C12.145 22 12.574 21.582 12.574 21.054V11.891H6.55693C6.09493 11.902 5.73193 11.528 5.73193 11.077Z" fill="#FDB833"/>
<path d="M19.6616 10.4942L16.5376 7.35912C16.2186 7.04012 15.6906 7.04012 15.3716 7.35912C15.0526 7.67812 15.0526 8.20612 15.3716 8.52512L17.0876 10.2412H12.5776V11.8912H17.0766L15.3606 13.6072C15.0416 13.9262 15.0416 14.4542 15.3606 14.7732C15.5256 14.9382 15.7346 15.0152 15.9436 15.0152C16.1526 15.0152 16.3616 14.9382 16.5266 14.7732L19.6506 11.6382C19.9806 11.3302 19.9806 10.8132 19.6616 10.4942Z" fill="#001E28"/>
</svg>
