<svg width="46" height="46" viewBox="0 0 46 46" fill="none" xmlns="http://www.w3.org/2000/svg">
<path fill-rule="evenodd" clip-rule="evenodd" d="M46 22.8266C46 35.6626 35.842 45.6532 23.1734 45.6532C10.5048 45.6532 0.346802 35.6626 0.346802 22.8266C0.346802 9.99067 10.5048 0 23.1734 0C35.842 0 46 9.99067 46 22.8266ZM29.0992 11.8961H19.8166C19.572 11.8961 19.366 12.012 19.2373 12.2051C19.1085 12.4111 19.0828 12.6429 19.1729 12.8617L23.1769 22.5563C23.2541 22.7237 23.2541 22.9039 23.1769 23.0841L19.1729 32.7787C19.0828 32.9976 19.1085 33.2422 19.2373 33.4353C19.366 33.6284 19.572 33.7443 19.8166 33.7443H29.0992C29.3824 33.7443 29.627 33.5898 29.7429 33.3194L33.9786 23.0841C34.0559 22.9168 34.0559 22.7365 33.9786 22.5563L29.7429 12.321C29.627 12.0635 29.3824 11.8961 29.0992 11.8961ZM15.7869 11.8961H12.5682C12.3236 11.8961 12.1176 12.012 11.9889 12.2051C11.8601 12.4111 11.8344 12.6429 11.9245 12.8617L15.9285 22.5563C16.0057 22.7237 16.0057 22.9039 15.9285 23.0841L11.9245 32.7787C11.8344 32.9976 11.8601 33.2422 11.9889 33.4353C12.1176 33.6284 12.3236 33.7443 12.5682 33.7443H15.7869C16.0701 33.7443 16.3147 33.5898 16.4306 33.3194L20.6663 23.0841C20.7436 22.9168 20.7436 22.7365 20.6663 22.5563L16.4306 12.321C16.3147 12.0635 16.0701 11.8961 15.7869 11.8961Z" fill="#FDB833"/>
</svg>
