<svg width="22" height="20" viewBox="0 0 22 20" fill="none" xmlns="http://www.w3.org/2000/svg">
<path d="M6.83275 16.0819L9.05892 18.308C9.27667 18.5274 9.53565 18.7014 9.82097 18.8202C10.1063 18.9389 10.4122 19 10.7213 19C11.0303 19 11.3362 18.9389 11.6215 18.8202C11.9069 18.7014 12.1658 18.5274 12.3836 18.308L14.6098 16.0819H16.554C17.5853 16.0819 18.5744 15.6722 19.3036 14.943C20.0328 14.2137 20.4425 13.2247 20.4425 12.1934V5.3885C20.4425 4.3572 20.0328 3.36821 19.3036 2.63897C18.5744 1.90974 17.5853 1.5 16.554 1.5H4.8885C3.8572 1.5 2.86815 1.90974 2.13891 2.63897C1.40967 3.36821 1 4.3572 1 5.3885V12.1934C1 13.2247 1.40967 14.2137 2.13891 14.943C2.86815 15.6722 3.8572 16.0819 4.8885 16.0819H6.83275Z" stroke="#001E28" stroke-width="1.5554" stroke-linecap="round" stroke-linejoin="round"/>
<mask id="mask0_14_534" style="mask-type:luminance" maskUnits="userSpaceOnUse" x="5" y="8" width="11" height="3">
<path d="M15.5818 8.30482H5.8606V10.2491H15.5818V8.30482Z" fill="white"/>
</mask>
<g mask="url(#mask0_14_534)">
<path d="M14.6096 10.2492C14.4832 10.2507 14.3577 10.2276 14.2402 10.1811C14.1207 10.1306 14.0119 10.0581 13.9194 9.96733C13.832 9.8777 13.7626 9.77203 13.7152 9.65615C13.6662 9.53561 13.6399 9.4071 13.6375 9.27703C13.6385 9.02194 13.7398 8.77764 13.9194 8.59654C14.0093 8.50253 14.1188 8.42953 14.2402 8.38277C14.4182 8.30947 14.6139 8.29066 14.8024 8.32872C14.991 8.36682 15.1642 8.46005 15.2998 8.59654C15.4793 8.77764 15.5806 9.02194 15.5817 9.27703C15.5793 9.4071 15.5529 9.53561 15.5039 9.65615C15.4566 9.77203 15.3872 9.8777 15.2998 9.96733C15.209 10.0574 15.1012 10.1286 14.9828 10.177C14.8644 10.2253 14.7375 10.2498 14.6096 10.2492Z" fill="#001E28"/>
<path d="M10.7211 10.2492C10.5948 10.2507 10.4693 10.2276 10.3517 10.1811C10.2323 10.1306 10.1235 10.0581 10.0309 9.96733C9.94355 9.8777 9.87414 9.77203 9.82679 9.65615C9.7778 9.53561 9.75145 9.4071 9.74902 9.27703C9.75009 9.02194 9.85139 8.77764 10.0309 8.59654C10.1209 8.50253 10.2304 8.42953 10.3517 8.38277C10.5297 8.30947 10.7254 8.29066 10.914 8.32872C11.1026 8.36682 11.2757 8.46005 11.4114 8.59654C11.5909 8.77764 11.6922 9.02194 11.6933 9.27703C11.6908 9.4071 11.6645 9.53561 11.6155 9.65615C11.5682 9.77203 11.4988 9.8777 11.4114 9.96733C11.3206 10.0574 11.2128 10.1286 11.0943 10.177C10.9759 10.2253 10.8491 10.2498 10.7211 10.2492Z" fill="#001E28"/>
<path d="M6.8326 10.2493C6.70621 10.2509 6.58073 10.2278 6.46319 10.1813C6.34375 10.1308 6.23493 10.0583 6.1424 9.96752C6.05496 9.87789 5.98562 9.77222 5.93823 9.65634C5.88925 9.5358 5.8629 9.40729 5.86047 9.27722C5.86154 9.02213 5.9628 8.77784 6.1424 8.59673C6.23231 8.50272 6.34183 8.42972 6.46319 8.38296C6.64114 8.30966 6.83683 8.29085 7.02546 8.32891C7.2141 8.36702 7.38718 8.46024 7.5228 8.59673C7.7024 8.77784 7.80365 9.02213 7.80472 9.27722C7.80229 9.40729 7.77595 9.5358 7.72696 9.65634C7.67958 9.77222 7.61024 9.87789 7.5228 9.96752C7.43196 10.0575 7.32425 10.1288 7.20581 10.1772C7.08736 10.2255 6.96054 10.25 6.8326 10.2493Z" fill="#001E28"/>
</g>
</svg>
