<svg width="23" height="29" viewBox="0 0 23 29" fill="none" xmlns="http://www.w3.org/2000/svg">
<path d="M8.67501 25.425H14.325C14.325 26.1742 14.0274 26.8928 13.4976 27.4226C12.9678 27.9524 12.2492 28.25 11.5 28.25C10.7508 28.25 10.0322 27.9524 9.50244 27.4226C8.97264 26.8928 8.67501 26.1742 8.67501 25.425ZM19.975 19.775V11.3C19.973 9.29866 19.2628 7.36261 17.9701 5.83472C16.6775 4.30683 14.8859 3.28568 12.9125 2.95213V1.4125C12.9125 1.03788 12.7637 0.678607 12.4988 0.413712C12.2339 0.148816 11.8746 0 11.5 0C11.1254 0 10.7661 0.148816 10.5012 0.413712C10.2363 0.678607 10.0875 1.03788 10.0875 1.4125V2.95213C8.11416 3.28568 6.32253 4.30683 5.02989 5.83472C3.73726 7.36261 3.02704 9.29866 3.02501 11.3V19.775L0.200012 22.6H22.8L19.975 19.775Z" fill="#5E6657"/>
</svg>
