<svg width="15" height="17" viewBox="0 0 15 17" fill="none" xmlns="http://www.w3.org/2000/svg">
<path d="M14.9999 8.44761C14.9999 8.22669 14.8208 8.04761 14.5999 8.04761H0.399879C0.178964 8.04761 -0.00012207 8.22669 -0.00012207 8.44761V16.4646C-0.00012207 16.6855 0.178964 16.8646 0.399878 16.8646H14.5999C14.8208 16.8646 14.9999 16.6855 14.9999 16.4646V8.44761Z" fill="#FDB833"/>
<path d="M13.2042 3.61095C13.2042 1.97743 11.88 0.6532 10.2465 0.6532L5.07043 0.653198C3.43692 0.653198 2.11268 1.97742 2.11268 3.61094V8.04756H4.43663V4.24475C4.43663 3.42799 5.09874 2.76587 5.9155 2.76587L9.40141 2.76588C10.2182 2.76588 10.8803 3.428 10.8803 4.24475V8.04756H13.2042V3.61095Z" fill="#001E28"/>
</svg>
