<svg width="21" height="17" viewBox="0 0 21 17" fill="none" xmlns="http://www.w3.org/2000/svg">
<path d="M19.3333 8.33333C19.3333 4.87636 19.3333 3.14789 18.2594 2.07394C17.1855 1 15.4569 1 12 1H8.33333C4.87636 1 3.14789 1 2.07394 2.07394C1 3.14789 1 4.87636 1 8.33333C1 11.7903 1 13.5188 2.07394 14.5927C3.14789 15.6667 4.87636 15.6667 8.33333 15.6667H12C15.4569 15.6667 17.1855 15.6667 18.2594 14.5927C18.8581 13.9939 19.123 13.1918 19.2403 12" stroke="#001E28" stroke-width="1.5" stroke-linecap="round"/>
<path d="M8.33341 12H4.66675" stroke="#001E28" stroke-width="1.5" stroke-linecap="round"/>
<path d="M12 12H10.625" stroke="#001E28" stroke-width="1.5" stroke-linecap="round"/>
<path d="M1 6.5H5.58333M19.3333 6.5H9.25" stroke="#001E28" stroke-width="1.5" stroke-linecap="round"/>
</svg>
