<svg width="16" height="16" viewBox="0 0 16 16" fill="none" xmlns="http://www.w3.org/2000/svg">
<path fill-rule="evenodd" clip-rule="evenodd" d="M6.12199 0.236195C6.66497 -0.0787318 7.33503 -0.0787317 7.87801 0.236195L13.128 3.28119C13.6678 3.59425 14 4.17102 14 4.795V7.09397C14 7.50818 13.6642 7.84397 13.25 7.84397C12.8358 7.84397 12.5 7.50818 12.5 7.09397V5.52101L7.75 8.27601V14.344V14.66C7.75 15.4307 6.91495 15.9117 6.24828 15.525L0.871994 12.4068C0.332237 12.0937 0 11.5169 0 10.893V4.795C0 4.17102 0.332236 3.59425 0.871993 3.28119L6.12199 0.236195ZM7.12543 1.53374L11.7552 4.21898L7.00001 6.97697L2.24485 4.21898L6.87457 1.53374C6.95214 1.48875 7.04786 1.48875 7.12543 1.53374ZM1.5 10.893V5.52101L6.25 8.27601V13.792L1.62457 11.1092C1.54746 11.0645 1.5 10.9821 1.5 10.893ZM12.3282 14.5771C12.0427 14.8772 12.0546 15.3519 12.3547 15.6374C12.6548 15.9229 13.1295 15.911 13.415 15.6109L15.7934 13.1109C16.0689 12.8214 16.0689 12.3666 15.7934 12.0771L13.415 9.57704C13.1295 9.27694 12.6548 9.2651 12.3547 9.55061C12.0546 9.83611 12.0427 10.3108 12.3282 10.6109L13.5013 11.844H10.25C9.83579 11.844 9.5 12.1798 9.5 12.594C9.5 13.0082 9.83579 13.344 10.25 13.344H13.5013L12.3282 14.5771Z" fill="#B4AB8B"/>
</svg>
