<svg width="30" height="30" viewBox="0 0 30 30" fill="none" xmlns="http://www.w3.org/2000/svg">
<circle cx="15" cy="15" r="15" fill="#5E6657"/>
<path d="M10 22V7.16443H15.8531C16.9783 7.16443 17.9369 7.37933 18.7289 7.80914C19.5209 8.23412 20.1246 8.8257 20.5399 9.5839C20.9601 10.3373 21.1701 11.2065 21.1701 12.1917C21.1701 13.1769 20.9577 14.0462 20.5327 14.7995C20.1077 15.5529 19.492 16.1397 18.6855 16.5598C17.8838 16.98 16.9131 17.19 15.7734 17.19H12.0428V14.6764H15.2663C15.87 14.6764 16.3674 14.5726 16.7586 14.3649C17.1546 14.1524 17.4492 13.8602 17.6423 13.4884C17.8404 13.1117 17.9394 12.6795 17.9394 12.1917C17.9394 11.6991 17.8404 11.2693 17.6423 10.9023C17.4492 10.5304 17.1546 10.2431 16.7586 10.0403C16.3626 9.83261 15.8603 9.72878 15.2519 9.72878H13.1366V22H10Z" fill="#FDB833"/>
</svg>
