<svg width="12" height="12" viewBox="0 0 12 12" fill="none" xmlns="http://www.w3.org/2000/svg">
<path fill-rule="evenodd" clip-rule="evenodd" d="M4.64869 0.732666H9.1219C9.25839 0.732666 9.37627 0.81332 9.43211 0.937404L11.4733 5.86972C11.5105 5.95658 11.5105 6.04344 11.4733 6.12409L9.43211 11.0564C9.37627 11.1867 9.25839 11.2611 9.1219 11.2611H4.64869C4.53081 11.2611 4.43155 11.2053 4.3695 11.1122C4.30746 11.0192 4.29505 10.9013 4.33848 10.7958L6.26798 6.12409C6.30521 6.03723 6.30521 5.95037 6.26798 5.86972L4.33848 1.19798C4.29505 1.09251 4.30746 0.980833 4.3695 0.881566C4.43155 0.788503 4.53081 0.732666 4.64869 0.732666ZM1.15574 0.732666H2.70679C2.84328 0.732666 2.96116 0.81332 3.017 0.937404L5.05817 5.86972C5.09539 5.95658 5.09539 6.04344 5.05817 6.12409L3.017 11.0564C2.96116 11.1867 2.84328 11.2611 2.70679 11.2611H1.15574C1.03786 11.2611 0.938597 11.2053 0.876556 11.1122C0.814514 11.0192 0.802106 10.9013 0.845535 10.7958L2.77503 6.12409C2.81226 6.03723 2.81226 5.95037 2.77503 5.86972L0.845535 1.19798C0.802106 1.09251 0.814514 0.980833 0.876556 0.881566C0.938597 0.788503 1.03786 0.732666 1.15574 0.732666Z" fill="#001E28"/>
</svg>
