<svg width="21" height="21" viewBox="0 0 21 21" fill="none" xmlns="http://www.w3.org/2000/svg">
<path d="M8.65548 2.73091C9.29716 1.69635 10.8024 1.69635 11.4441 2.73091C11.866 3.41108 12.717 3.6876 13.4581 3.38531C14.5853 2.9255 15.8031 3.81027 15.7141 5.02442C15.6557 5.82264 16.1816 6.5466 16.9589 6.73763C18.1411 7.02821 18.6062 8.4598 17.8206 9.38977C17.3041 10.0012 17.3041 10.896 17.8206 11.5074C18.6062 12.4374 18.1411 13.869 16.9589 14.1596C16.1816 14.3506 15.6557 15.0745 15.7141 15.8728C15.8031 17.0869 14.5853 17.9717 13.4581 17.5119C12.717 17.2096 11.866 17.4861 11.4441 18.1663C10.8024 19.2008 9.29716 19.2008 8.65548 18.1663C8.23361 17.4861 7.38256 17.2096 6.64147 17.5119C5.51424 17.9717 4.29646 17.0869 4.38543 15.8728C4.44392 15.0745 3.91794 14.3506 3.14071 14.1596C1.95849 13.869 1.49334 12.4374 2.27898 11.5074C2.79548 10.896 2.79548 10.0012 2.27898 9.38977C1.49334 8.4598 1.95849 7.02821 3.14071 6.73763C3.91794 6.5466 4.44392 5.82264 4.38543 5.02442C4.29646 3.81027 5.51424 2.9255 6.64147 3.38531C7.38256 3.6876 8.23361 3.41108 8.65548 2.73091Z" fill="#FDB833"/>
<path d="M7.20245 10.6858L8.8634 12.3468L12.1853 9.0249" stroke="#001E28" stroke-width="1.1073" stroke-linecap="round" stroke-linejoin="round"/>
</svg>
